<?xml version="1.0" encoding="utf-8"?>
<!-- Generator: Adobe Illustrator 16.0.0, SVG Export Plug-In . SVG Version: 6.00 Build 0)  -->
<!DOCTYPE svg PUBLIC "-//W3C//DTD SVG 1.1//EN" "http://www.w3.org/Graphics/SVG/1.1/DTD/svg11.dtd">
<svg version="1.1"
	 id="Layer_1" xmlns:dc="http://purl.org/dc/elements/1.1/" xmlns:cc="http://creativecommons.org/ns#" xmlns:rdf="http://www.w3.org/1999/02/22-rdf-syntax-ns#" xmlns:svg="http://www.w3.org/2000/svg" xmlns:sodipodi="http://sodipodi.sourceforge.net/DTD/sodipodi-0.dtd" xmlns:inkscape="http://www.inkscape.org/namespaces/inkscape"
	 xmlns="http://www.w3.org/2000/svg" xmlns:xlink="http://www.w3.org/1999/xlink" x="0px" y="0px" width="495.8px" height="510px"
	 viewBox="58.1 64.5 495.8 510" style="enable-background:new 58.1 64.5 495.8 510;" xml:space="preserve">
<g transform="translate(0,-24)">
	<path d="M255,88.5c-7.1,0-11.6,5.8-12.8,12.8l-11.1,66.5c-14.2,6-27.7,13.8-40,23.1l-63.1-23.7c-6.9-1.4-13.9-1.4-17.4,4.7
		l-51,88.4c-3.5,6.1-0.8,12.9,4.7,17.4l51.9,42.8c-1,7.7-1.5,15.4-1.5,23.1c0.1,7.7,0.6,15.4,1.6,23.1l-52,42.8
		c-4.7,5.3-8.2,11.3-4.7,17.4l51,88.4c3.5,6.1,10.8,7.2,17.4,4.7l63.1-23.7c12.3,9.4,25.8,17.2,40,23.4l11.1,66.2
		c2.2,6.7,5.7,12.8,12.8,12.8h102c7.1,0,11.6-5.8,12.8-12.8l11.1-66.5c14.2-6,27.7-13.8,40-23.1l63.1,23.7
		c6.9,1.4,13.9,1.4,17.4-4.7l51-88.4c3.5-6.1,0.8-12.9-4.7-17.4l-51.9-42.8c1-7.7,1.5-15.4,1.5-23.1c-0.1-7.7-0.6-15.4-1.6-23.1
		l52-42.8c4.7-5.3,8.2-11.3,4.7-17.4l-51-88.4c-3.5-6.1-10.8-7.2-17.4-4.7l-63.1,23.7c-12.3-9.4-25.8-17.2-40-23.4l-11.1-66.2
		c-2.2-6.7-5.7-12.8-12.8-12.8H255z M306,254.3c49.3,0,89.3,40,89.3,89.3s-40,89.3-89.3,89.3c-49.3,0-89.3-40-89.3-89.3
		S256.7,254.3,306,254.3z"/>
</g>
</svg>
